<svg id="Layer_1" data-name="Layer 1" xmlns="http://www.w3.org/2000/svg" viewBox="0 0 851 851" fill="white"><defs><style>.cls-1{fill-rule:evenodd;}</style></defs><path class="cls-1" d="M102.45,415.79l-10.1,16.9H67a30,30,0,0,1-12.2-2.5,29.1,29.1,0,0,1-9.7-7,31.87,31.87,0,0,1-6.3-10.6,35.3,35.3,0,0,1-2.3-13.3,34.52,34.52,0,0,1,2.3-13.1,31.85,31.85,0,0,1,6.3-10.2,28.49,28.49,0,0,1,9.7-6.6,31.84,31.84,0,0,1,12.2-2.2h35.5l-10.1,17H67a15.18,15.18,0,0,0-5.9,1.2,14.3,14.3,0,0,0-4.7,3.3,16.25,16.25,0,0,0-4.2,11.5,17.42,17.42,0,0,0,1.1,6.4,14,14,0,0,0,7.8,8.2,15.12,15.12,0,0,0,5.9,1.1Zm79,16.8h-21l-11.3-17.3h-24v17.3h-15.7v-33.5h44a8.93,8.93,0,0,0,6.1-2,6.33,6.33,0,0,0,2.5-5.4,6.75,6.75,0,0,0-2.3-5.7,9.71,9.71,0,0,0-6.4-1.9h-44l10.2-17h32.6a38,38,0,0,1,8.9,1,23.47,23.47,0,0,1,8.4,3.7,20.39,20.39,0,0,1,6.2,7.2,24.54,24.54,0,0,1,2.5,11.6,28.64,28.64,0,0,1-.9,7.2,22.41,22.41,0,0,1-2.6,6.2,17,17,0,0,1-4.2,4.7,13.77,13.77,0,0,1-5.6,2.7c1,1,2,2.1,2.9,3.2,1,1.3,2.5,3.1,4.2,5.4l9.5,12.6Zm41-66.6c12.3,0,21.5,2.7,27.7,8.1s9.3,14,9.3,25.7-3.1,20.3-9.2,25.8-15.4,8.1-27.8,8.1-21.7-2.7-27.8-8.1-9.2-14-9.2-25.8,3.1-20.2,9.2-25.7S210.15,366,222.45,366Zm0,50.6a83.36,83.36,0,0,0,10-.6,14.28,14.28,0,0,0,6.6-2.5,11,11,0,0,0,3.7-5.1,33.05,33.05,0,0,0,0-17.1,9.83,9.83,0,0,0-3.7-5.1,16.13,16.13,0,0,0-6.6-2.5,83.63,83.63,0,0,0-20,0,14.48,14.48,0,0,0-6.6,2.5,11.16,11.16,0,0,0-3.7,5.1,33.05,33.05,0,0,0,0,17.1,9.61,9.61,0,0,0,3.7,5.1,14.36,14.36,0,0,0,6.6,2.5A55.8,55.8,0,0,0,222.45,416.59Zm93.6-23.4q9.3,0,14.1,4.5t4.8,13.5a33.77,33.77,0,0,1-1.2,9,17.16,17.16,0,0,1-3.9,6.8,16.43,16.43,0,0,1-6.8,4.2,32.87,32.87,0,0,1-9.9,1.5h-47.1l10.1-16.8h38.3a6.46,6.46,0,0,0,4.1-1.1,5,5,0,0,0,1.3-3.7,4.37,4.37,0,0,0-1.3-3.6,6.52,6.52,0,0,0-4.1-1.1h-27.4a22.24,22.24,0,0,1-8.5-1.4,16.14,16.14,0,0,1-5.9-3.8,15.46,15.46,0,0,1-3.5-5.9c-.2-.7-.4-1.4-.6-2.2h17.6a6,6,0,0,0,2.3.2Zm-47.8-9.3a27.15,27.15,0,0,1,1.1-4.8,16.32,16.32,0,0,1,3.9-6.4,16.84,16.84,0,0,1,6.7-4.1,33.29,33.29,0,0,1,9.9-1.5h43.9l-9.9,16.8Zm122.5,9.3q9.3,0,14.1,4.5t4.8,13.5a33.77,33.77,0,0,1-1.2,9,16.12,16.12,0,0,1-3.9,6.8,16.43,16.43,0,0,1-6.8,4.2,32.87,32.87,0,0,1-9.9,1.5h-47.1l10.1-16.8h38.3a6.46,6.46,0,0,0,4.1-1.1,5,5,0,0,0,1.3-3.7,4.37,4.37,0,0,0-1.3-3.6,6.52,6.52,0,0,0-4.1-1.1h-27.5a22.24,22.24,0,0,1-8.5-1.4,16.14,16.14,0,0,1-5.9-3.8,15.46,15.46,0,0,1-3.5-5.9c-.2-.7-.4-1.4-.6-2.2h17.6a6,6,0,0,0,2.3.2Zm-47.9-9.3a26.25,26.25,0,0,1,1-4.8,16.32,16.32,0,0,1,3.9-6.4,16.84,16.84,0,0,1,6.7-4.1,33.29,33.29,0,0,1,9.9-1.5h44l-9.9,16.8Zm132.4-16.8-10,16.8h-46.7v-16.8Zm-3.1,25.9-9.3,15.6h-28.6v24h-15.7V393Zm26.1,39.6h-15.7v-65.5h15.7Zm74.4-65.5-10.1,17h-18.1v48.5h-15.7v-48.5h-23.7l10.1-17Z"/><path class="cls-1" d="M643.55,366c9.5,0,20.3,1.6,27.7,8.1s9.3,16.4,9.3,25.7-1.9,19.3-9.2,25.8-18.2,8.1-27.8,8.1-20.4-1.6-27.8-8.1-9.2-16.5-9.2-25.8,1.9-19.2,9.2-25.7S634.05,366,643.55,366Zm81.4,18.1v48.5h-15.6v-48.5h-23.8l10.1-17h57.5l-10.1,17Zm50.4,31.7h39.2l-10.1,16.8h-44.7v-65.5h15.7v48.7Zm-131.8.8a83.36,83.36,0,0,0,10-.6,15.54,15.54,0,0,0,6.6-2.5,11,11,0,0,0,3.7-5.1,33.05,33.05,0,0,0,0-17.1,10.39,10.39,0,0,0-3.7-5.1,16.13,16.13,0,0,0-6.6-2.5,83.63,83.63,0,0,0-20,0,14.48,14.48,0,0,0-6.6,2.5,11.16,11.16,0,0,0-3.7,5.1,34.32,34.32,0,0,0,0,17.2,10,10,0,0,0,3.7,5.1,15.59,15.59,0,0,0,6.6,2.5,66.88,66.88,0,0,0,10,.5Z"/><rect x="36.55" y="469.79" width="149.7" height="5.7"/><rect x="664.85" y="469.79" width="149.7" height="5.7"/><path class="cls-1" d="M207,458.89a72.38,72.38,0,0,1,9.2.4,5.1,5.1,0,0,1,4.5,4.2,59.8,59.8,0,0,1,0,16.9,5,5,0,0,1-4.5,4.2,72.12,72.12,0,0,1-9.3.4,72.27,72.27,0,0,1-9.3-.4,5.09,5.09,0,0,1-4.5-4.2,59.8,59.8,0,0,1,0-16.9,5,5,0,0,1,4.5-4.2c3-.3,6.2-.4,9.4-.4Zm-.4,6.6a28.18,28.18,0,0,0-5.8.3,2.45,2.45,0,0,0-1.6,1.8,21.49,21.49,0,0,0-.3,5,20.3,20.3,0,0,0,.2,3.4,2.55,2.55,0,0,0,2.3,2.2,67.33,67.33,0,0,0,11,0,2.45,2.45,0,0,0,2.3-2.2,17.32,17.32,0,0,0,.2-3.3,36.28,36.28,0,0,0-.1-3.9,3.69,3.69,0,0,0-1-2.5,5,5,0,0,0-2.9-.7c-.6,0-2,0-4.3-.1Zm19.8-6.2h11.2l11,19h.7l-.1-19h6.5v25.4h-11.1l-11-19h-.7l.1,19h-6.6v-25.4Zm41.1,0h25.4v6.5h-9.4v19h-6.7v-19h-9.4l.1-6.5Zm29.5,0h6.7v9.1h14.4v-9.1h6.7v25.4h-6.7v-9.2h-14.4v9.2H297v-25.4Zm33.4,0h23.2v6h-16.9V469h16.1v5.6h-16.1v4.1h17.1v6.1h-23.4v-25.5Zm35.9,0H373v19h14.9v6.5h-21.6v-25.5Zm25.7,0h6.7v25.4H392Zm12.2,0h11.2l11,19h.7l-.2-19h6.5v25.4h-11.1l-11-19h-.7l.1,19h-6.5v-25.4Zm34.8,0h23.2v6h-16.9V469h16.1v5.6h-16.1v4.1h17.1v6.1H439v-25.5Zm35.8,0h22.1v6h-15.8v4.8h15v5.8h-15v8.8h-6.4l.1-25.4Zm26.3,0h6.7v25.4h-6.7Zm10.8,0h25.4v6.5H528v19h-6.7v-19h-9.4v-6.5Zm29.4,0h11.2l11,19h.7l-.2-19h6.5v25.4h-11.2l-11-19h-.7l.1,19h-6.4v-25.4Zm34.8,0h23.2v6h-16.9V469h16.1v5.6h-16.1v4.1h17.1v6.1h-23.4Zm27.2,17h6.2a3.4,3.4,0,0,0,.6,2.4,2.08,2.08,0,0,0,.8.4,7.57,7.57,0,0,0,1.5.1h3.5a43.32,43.32,0,0,0,4.7-.1,2.89,2.89,0,0,0,1.6-.4,2.35,2.35,0,0,0,.5-1.8,3.1,3.1,0,0,0-.3-1.4c-.3-.4-1-.6-2.2-.6-.8,0-2.5-.1-5-.2s-4.3-.2-5.1-.3a10.63,10.63,0,0,1-4.3-.9,4.72,4.72,0,0,1-2.1-3.2,19.2,19.2,0,0,1-.3-3.3c0-2.9.5-4.9,1.3-6.1a5.55,5.55,0,0,1,3.1-1.8,66.47,66.47,0,0,1,8.8-.4c2.1,0,4.3.1,6.4.3a6.8,6.8,0,0,1,3.6,1.5c1,1,1.5,2.7,1.5,5.3v1.3h-6.2a5.19,5.19,0,0,0-.1-1.3,1.39,1.39,0,0,0-1.4-1.2c-.7-.1-2.4-.1-5.2-.1a19.36,19.36,0,0,0-4.8.3c-.6.2-.8.8-.8,1.7s.3,1.4.9,1.6a50.06,50.06,0,0,0,6.8.5,56.39,56.39,0,0,1,7,.5,6.14,6.14,0,0,1,2.4.8,3.56,3.56,0,0,1,1.4,1.6,11.42,11.42,0,0,1,.8,4.9,14.47,14.47,0,0,1-.8,5.5,4.37,4.37,0,0,1-2.6,2.4c-1.2.4-4.5.6-9.8.6-2.4,0-4.7-.1-7-.3a6.65,6.65,0,0,1-3.8-1.5,5.48,5.48,0,0,1-1.6-3.2,21.41,21.41,0,0,1-.1-2.4l.1-1.2Zm29.8,0h6.2a3.4,3.4,0,0,0,.6,2.4,2.08,2.08,0,0,0,.8.4,7.57,7.57,0,0,0,1.5.1h3.5a43.32,43.32,0,0,0,4.7-.1,2.89,2.89,0,0,0,1.6-.4,2.35,2.35,0,0,0,.5-1.8,3.1,3.1,0,0,0-.3-1.4c-.3-.4-1-.6-2.2-.6-.8,0-2.5-.1-5-.2s-4.3-.2-5.1-.3a10.63,10.63,0,0,1-4.3-.9,4.72,4.72,0,0,1-2.1-3.2,19.2,19.2,0,0,1-.3-3.3c0-2.9.5-4.9,1.4-6.1a5,5,0,0,1,3.1-1.8,66.47,66.47,0,0,1,8.8-.4c2.1,0,4.3.1,6.4.3a6.8,6.8,0,0,1,3.6,1.5c1,1,1.5,2.7,1.5,5.3v1.3h-6.2a5.19,5.19,0,0,0-.1-1.3,1.39,1.39,0,0,0-1.4-1.2c-.7-.1-2.4-.1-5.2-.1a19.36,19.36,0,0,0-4.8.3c-.6.2-.8.8-.8,1.7s.3,1.4.9,1.6a50.06,50.06,0,0,0,6.8.5,56.39,56.39,0,0,1,7,.5,6.14,6.14,0,0,1,2.4.8,3.56,3.56,0,0,1,1.4,1.6,11.42,11.42,0,0,1,.8,4.9,14.47,14.47,0,0,1-.8,5.5,4.37,4.37,0,0,1-2.6,2.4c-1.2.4-4.5.6-9.8.6-2.3,0-4.7-.1-7-.3a6.65,6.65,0,0,1-3.8-1.5,5,5,0,0,1-1.6-3.2,21.41,21.41,0,0,1-.1-2.4Z"/></svg>